<svg width="413" height="306" viewBox="0 0 413 306" fill="none" xmlns="http://www.w3.org/2000/svg">
<g filter="url(#filter0_d_41_55)">
<path fill-rule="evenodd" clip-rule="evenodd" d="M65.832 35.9487C97.5004 15.7345 148.098 2.11921 148.098 6.9925C149.443 9.45494 150.108 10.8977 151.071 13.5326C105.445 25.0702 97.7513 32.0678 77.802 50.2112C75.1346 52.6371 72.2482 55.2623 69.0227 58.1242C157.017 6.9925 273.549 20.6673 334.194 58.7187C306.844 34.4524 283.657 20.6673 250.956 13.5326C252.145 10.8771 252.943 9.43521 254.523 6.9925C282.083 4.09164 312.789 21.2438 333.21 34.1472C341.307 39.2634 347.869 46.5411 352.089 55.1395C385.699 123.63 389.57 164.067 395.679 227.872L395.682 227.899C395.988 231.098 396.3 234.356 396.622 237.68C357.381 289.406 280.684 290 280.684 290C280.684 290 271.201 279.728 268.198 271.569C304.466 259.083 324.681 240.058 342.517 221.032C211.716 310.81 73.1845 233.518 60.1044 221.032C83.6504 247.06 107.669 260.867 134.424 271.569C131.05 279.872 127.228 283.808 120.749 290C48.8078 290 6 237.085 6 237.085C6 237.085 6.00029 137.946 51.9719 51.3891C55.271 45.1776 59.9035 39.7329 65.832 35.9487ZM172.475 165.144C172.475 183.861 159.166 199.034 142.748 199.034C126.329 199.034 113.02 183.861 113.02 165.144C113.02 146.427 126.329 131.255 142.748 131.255C159.166 131.255 172.475 146.427 172.475 165.144ZM259.28 199.034C275.698 199.034 289.008 183.861 289.008 165.144C289.008 146.427 275.698 131.255 259.28 131.255C242.862 131.255 229.552 146.427 229.552 165.144C229.552 183.861 242.862 199.034 259.28 199.034Z" fill="black"/>
<path d="M148.098 6.9925H147.598V7.1201L147.659 7.23209L148.098 6.9925ZM65.832 35.9487L65.563 35.5273L65.832 35.9487ZM151.071 13.5326L151.194 14.0173L151.731 13.8814L151.541 13.3609L151.071 13.5326ZM77.802 50.2112L77.4655 49.8413L77.802 50.2112ZM69.0227 58.1242L68.6908 57.7502L69.2739 58.5565L69.0227 58.1242ZM334.194 58.7187L333.928 59.1423L334.525 58.3447L334.194 58.7187ZM250.956 13.5326L250.5 13.3283L250.248 13.8899L250.85 14.0211L250.956 13.5326ZM254.523 6.9925L254.471 6.49525L254.233 6.52026L254.104 6.72091L254.523 6.9925ZM333.21 34.1472L332.943 34.5699L333.21 34.1472ZM352.089 55.1395L352.538 54.9192L352.089 55.1395ZM395.679 227.872L395.182 227.92L395.182 227.921L395.679 227.872ZM395.682 227.899L396.18 227.851L396.18 227.85L395.682 227.899ZM396.622 237.68L397.02 237.982L397.138 237.826L397.119 237.631L396.622 237.68ZM280.684 290L280.316 290.339L280.466 290.502L280.688 290.5L280.684 290ZM268.198 271.569L268.035 271.096L267.553 271.262L267.729 271.741L268.198 271.569ZM342.517 221.032L342.882 221.374L342.234 220.62L342.517 221.032ZM60.1044 221.032L60.4496 220.67L59.7336 221.367L60.1044 221.032ZM134.424 271.569L134.887 271.757L135.076 271.291L134.609 271.105L134.424 271.569ZM120.749 290V290.5H120.949L121.094 290.361L120.749 290ZM6 237.085H5.5L5.5 237.262L5.61128 237.399L6 237.085ZM51.9719 51.3891L52.4135 51.6237L51.9719 51.3891ZM148.598 6.9925C148.598 6.40755 148.194 6.03758 147.72 5.83334C147.257 5.63355 146.624 5.53687 145.881 5.5088C144.383 5.45218 142.241 5.6705 139.612 6.1257C134.343 7.03801 127.005 8.92189 118.688 11.5866C102.057 16.9156 81.4462 25.3888 65.563 35.5273L66.101 36.3702C81.8861 26.2944 102.409 17.8529 118.993 12.539C127.285 9.88227 134.575 8.01268 139.783 7.11104C142.392 6.65926 144.451 6.45548 145.843 6.50809C146.546 6.53464 147.031 6.6254 147.324 6.75169C147.607 6.87354 147.598 6.96829 147.598 6.9925H148.598ZM151.541 13.3609C150.568 10.7011 149.893 9.23573 148.537 6.7529L147.659 7.23209C148.993 9.67414 149.647 11.0943 150.602 13.7043L151.541 13.3609ZM78.1384 50.5811C88.1185 41.5044 94.9867 35.261 105.045 29.8348C115.11 24.4055 128.391 19.7837 151.194 14.0173L150.949 13.0478C128.126 18.8191 114.747 23.4649 104.57 28.9547C94.3883 34.4475 87.4348 40.7746 77.4655 49.8413L78.1384 50.5811ZM69.3545 58.4982C72.5826 55.634 75.4712 53.0069 78.1384 50.5811L77.4655 49.8413C74.798 52.2674 71.9137 54.8906 68.6908 57.7502L69.3545 58.4982ZM334.459 58.2952C304.049 39.2139 259.665 26.2644 211.883 24.4781C164.096 22.6917 112.867 32.069 68.7715 57.6919L69.2739 58.5565C113.173 33.0477 164.206 23.6965 211.846 25.4774C259.489 27.2585 303.694 40.1721 333.928 59.1423L334.459 58.2952ZM250.85 14.0211C283.444 21.1327 306.557 34.8658 333.862 59.0927L334.525 58.3447C307.132 34.039 283.869 20.2019 251.063 13.0441L250.85 14.0211ZM254.104 6.72091C252.511 9.18339 251.7 10.6477 250.5 13.3283L251.412 13.7368C252.59 11.1065 253.376 9.68704 254.943 7.26409L254.104 6.72091ZM333.477 33.7246C323.258 27.2675 310.447 19.7349 296.731 14.1798C283.021 8.62661 268.366 5.03267 254.471 6.49525L254.576 7.48975C268.24 6.05146 282.719 9.58317 296.356 15.1067C309.989 20.6283 322.741 28.1235 332.943 34.5699L333.477 33.7246ZM352.538 54.9192C348.277 46.2372 341.651 38.8897 333.477 33.7246L332.943 34.5699C340.962 39.6371 347.461 46.845 351.64 55.3598L352.538 54.9192ZM396.177 227.825C390.067 164.004 386.189 123.493 352.538 54.9192L351.64 55.3598C385.209 123.767 389.074 164.131 395.182 227.92L396.177 227.825ZM396.18 227.85L396.177 227.824L395.182 227.921L395.184 227.947L396.18 227.85ZM397.119 237.631C396.798 234.308 396.486 231.05 396.18 227.851L395.184 227.946C395.49 231.146 395.802 234.404 396.124 237.728L397.119 237.631ZM280.684 290C280.688 290.5 280.688 290.5 280.689 290.5C280.69 290.5 280.691 290.5 280.692 290.5C280.694 290.5 280.698 290.5 280.703 290.5C280.713 290.5 280.727 290.5 280.746 290.499C280.784 290.499 280.84 290.498 280.914 290.497C281.062 290.494 281.282 290.489 281.57 290.48C282.145 290.463 282.992 290.432 284.083 290.373C286.265 290.255 289.424 290.029 293.336 289.596C301.159 288.73 311.999 287.035 324.07 283.719C348.202 277.091 377.306 263.968 397.02 237.982L396.223 237.377C376.697 263.117 347.832 276.155 323.805 282.755C311.796 286.054 301.01 287.74 293.226 288.602C289.334 289.033 286.195 289.257 284.029 289.374C282.946 289.433 282.107 289.464 281.54 289.481C281.256 289.489 281.04 289.494 280.896 289.497C280.824 289.498 280.769 289.499 280.733 289.499C280.715 289.5 280.701 289.5 280.693 289.5C280.688 289.5 280.685 289.5 280.683 289.5C280.682 289.5 280.681 289.5 280.68 289.5C280.68 289.5 280.68 289.5 280.684 290ZM267.729 271.741C269.258 275.896 272.419 280.553 275.17 284.148C276.55 285.951 277.835 287.497 278.776 288.593C279.246 289.141 279.63 289.577 279.898 289.876C280.031 290.025 280.135 290.141 280.207 290.219C280.242 290.258 280.269 290.288 280.288 290.308C280.297 290.318 280.304 290.326 280.309 290.331C280.311 290.334 280.313 290.336 280.314 290.337C280.315 290.338 280.315 290.338 280.316 290.338C280.316 290.339 280.316 290.339 280.316 290.339C280.316 290.339 280.316 290.339 280.684 290C281.051 289.661 281.051 289.661 281.051 289.661C281.051 289.661 281.051 289.661 281.051 289.661C281.051 289.66 281.05 289.66 281.05 289.659C281.049 289.658 281.047 289.656 281.045 289.654C281.041 289.649 281.034 289.642 281.025 289.633C281.008 289.613 280.981 289.584 280.947 289.546C280.877 289.47 280.775 289.357 280.643 289.21C280.38 288.915 280 288.484 279.535 287.942C278.603 286.857 277.33 285.325 275.964 283.54C273.223 279.959 270.141 275.401 268.667 271.396L267.729 271.741ZM342.153 220.69C324.34 239.69 304.192 258.649 268.035 271.096L268.361 272.042C304.74 259.518 325.021 240.426 342.882 221.374L342.153 220.69ZM59.7592 221.393C61.4376 222.996 65.0741 225.593 70.3752 228.729C75.6875 231.872 82.6994 235.574 91.1503 239.38C108.052 246.993 130.72 255.033 157.075 259.872C209.788 269.551 277.264 266.426 342.8 221.444L342.234 220.62C276.969 265.415 209.779 268.533 157.256 258.889C130.992 254.066 108.4 246.054 91.561 238.468C83.1414 234.676 76.1626 230.992 70.8845 227.869C65.5951 224.739 62.0413 222.189 60.4496 220.67L59.7592 221.393ZM134.609 271.105C107.906 260.423 83.9578 246.654 60.4752 220.696L59.7336 221.367C83.343 247.465 107.432 261.311 134.238 272.033L134.609 271.105ZM121.094 290.361C127.587 284.157 131.472 280.161 134.887 271.757L133.96 271.381C130.627 279.583 126.87 283.459 120.403 289.638L121.094 290.361ZM6 237.085C5.61128 237.399 5.61157 237.4 5.61202 237.4C5.61239 237.401 5.613 237.401 5.61374 237.402C5.61522 237.404 5.61734 237.407 5.62012 237.41C5.62568 237.417 5.63385 237.427 5.64463 237.44C5.66617 237.466 5.69812 237.505 5.74043 237.556C5.82505 237.658 5.95109 237.808 6.11816 238.004C6.45227 238.395 6.95046 238.967 7.60939 239.694C8.92721 241.149 10.8881 243.224 13.4655 245.712C18.6198 250.69 26.2417 257.324 36.1178 263.957C55.8689 277.224 84.6519 290.5 120.749 290.5V289.5C84.9048 289.5 56.3134 276.318 36.6753 263.127C26.8568 256.532 19.2804 249.937 14.1601 244.993C11.6002 242.521 9.65469 240.462 8.35043 239.023C7.69832 238.303 7.20655 237.738 6.87848 237.354C6.71444 237.162 6.59133 237.015 6.50956 236.917C6.46868 236.868 6.43813 236.831 6.41798 236.806C6.4079 236.794 6.40042 236.785 6.39554 236.779C6.3931 236.776 6.39131 236.773 6.39018 236.772C6.38961 236.771 6.38925 236.771 6.38896 236.771C6.38876 236.77 6.38872 236.77 6 237.085ZM51.5304 51.1546C28.5098 94.4983 17.0045 140.981 11.253 176.616C8.37687 194.436 6.93868 209.549 6.21949 220.208C5.85988 225.538 5.68001 229.755 5.59004 232.64C5.54506 234.083 5.52255 235.193 5.51128 235.943C5.50565 236.318 5.50283 236.602 5.50142 236.794C5.50071 236.89 5.50036 236.962 5.50018 237.011C5.50009 237.035 5.50005 237.053 5.50002 237.066C5.50001 237.072 5.50001 237.077 5.5 237.08C5.5 237.081 5.5 237.083 5.5 237.083C5.5 237.084 5.5 237.085 6 237.085C6.5 237.085 6.5 237.084 6.5 237.084C6.5 237.083 6.5 237.082 6.5 237.081C6.50001 237.078 6.50001 237.073 6.50002 237.068C6.50004 237.056 6.50009 237.038 6.50017 237.014C6.50035 236.967 6.50069 236.896 6.50139 236.801C6.50278 236.612 6.50558 236.33 6.51117 235.958C6.52236 235.213 6.54475 234.108 6.58956 232.671C6.67918 229.797 6.85849 225.592 7.21722 220.275C7.93469 209.641 9.36981 194.56 12.2402 176.775C17.9817 141.202 29.4625 94.8364 52.4135 51.6237L51.5304 51.1546ZM65.563 35.5273C59.5502 39.3652 54.8629 44.8801 51.5304 51.1546L52.4135 51.6237C55.6791 45.4752 60.2568 40.1006 66.101 36.3702L65.563 35.5273ZM142.748 199.534C159.501 199.534 172.975 184.073 172.975 165.144H171.975C171.975 183.648 158.83 198.534 142.748 198.534V199.534ZM112.52 165.144C112.52 184.073 125.994 199.534 142.748 199.534V198.534C126.665 198.534 113.52 183.648 113.52 165.144H112.52ZM142.748 130.755C125.994 130.755 112.52 146.215 112.52 165.144H113.52C113.52 146.64 126.665 131.755 142.748 131.755V130.755ZM172.975 165.144C172.975 146.215 159.501 130.755 142.748 130.755V131.755C158.83 131.755 171.975 146.64 171.975 165.144H172.975ZM288.508 165.144C288.508 183.648 275.363 198.534 259.28 198.534V199.534C276.034 199.534 289.508 184.073 289.508 165.144H288.508ZM259.28 131.755C275.363 131.755 288.508 146.64 288.508 165.144H289.508C289.508 146.215 276.034 130.755 259.28 130.755V131.755ZM230.052 165.144C230.052 146.64 243.198 131.755 259.28 131.755V130.755C242.526 130.755 229.052 146.215 229.052 165.144H230.052ZM259.28 198.534C243.198 198.534 230.052 183.648 230.052 165.144H229.052C229.052 184.073 242.526 199.534 259.28 199.534V198.534Z" fill="black"/>
</g>
<defs>
<filter id="filter0_d_41_55" x="0.5" y="0.5" width="411.638" height="305.002" filterUnits="userSpaceOnUse" color-interpolation-filters="sRGB">
<feFlood flood-opacity="0" result="BackgroundImageFix"/>
<feColorMatrix in="SourceAlpha" type="matrix" values="0 0 0 0 0 0 0 0 0 0 0 0 0 0 0 0 0 0 127 0" result="hardAlpha"/>
<feOffset dx="5" dy="5"/>
<feGaussianBlur stdDeviation="5"/>
<feComposite in2="hardAlpha" operator="out"/>
<feColorMatrix type="matrix" values="0 0 0 0 0.666667 0 0 0 0 0.129412 0 0 0 0 0.129412 0 0 0 0.25 0"/>
<feBlend mode="normal" in2="BackgroundImageFix" result="effect1_dropShadow_41_55"/>
<feBlend mode="normal" in="SourceGraphic" in2="effect1_dropShadow_41_55" result="shape"/>
</filter>
</defs>
</svg>
